<svg xmlns="http://www.w3.org/2000/svg" fill-rule="evenodd" width="100%" height="100%" stroke-linejoin="round" stroke-miterlimit="2" clip-rule="evenodd" version="1.1" viewBox="0 0 190 63" xml:space="preserve"><path d="M0 53.487h36.073l3.506 9.334h11.516L30.804 9.334H16.979L0 53.487zm23.722-33.345 5.758 15.549H18.118l5.604-15.549zM49.399 9.334h11.362v44.153H49.399zM83.82 53.487c4.587 0 9.083-1.139 13.055-3.571a22.348 22.348 0 0 0 5.203-4.403c2.956-3.418 4.834-8.437 4.834-14.102 0-5.696-1.847-10.715-4.803-14.133-4.434-5.173-11.331-8.036-18.135-7.944h-17.92v44.153H83.82z" fill-rule="nonzero"/><path d="m115.386 53.487 8.529-14.256 14.317 23.59h12.87l-19.89-31.903 13.301-21.584h-12.716l-7.882 13.394L110.539 0H97.792l18.795 30.918-14.071 22.569h12.87z" fill-rule="nonzero"/><path d="M148.936 53.487h40.427V9.334h-10.592v25.741L160.79 9.334h-11.854v44.153z" fill-rule="nonzero"/></svg>