<svg xmlns="http://www.w3.org/2000/svg" xml:space="preserve" fill-rule="evenodd" width="100%" height="100%" stroke-linejoin="round" stroke-miterlimit="2" clip-rule="evenodd" version="1.1" viewBox="0 0 2343 1045"><path d="M0 0h2342.5v1044.14H0z" fill="none"/><path d="M1766.87 64.329c-2.365-4.081-17.205-5.765-22.017-5.332-29.946 2.694-99.842 19.291-110.088 43.391-71.892 169.102-230.262 410.317-346.879 618.868-25.126 44.935-121.002 179.886-134.701 207.994-2.344 4.809 3.262 13.85 8.744 13.521 27.618-1.658 438.2-526.496 486.575-600.107 56.116-85.393 98.766-158.63 124.31-231.487 7.128-20.332 4.264-29.23-5.944-46.848Z" fill="#cbcbcb"/><path d="M1553.42 670.349c1.474-.554 9.463-8.653 9.802-10.492 1.72-9.331-5.154-20.904-11.206-26.827-82.906-81.144-99.865-135.587-151.379-196.174-11.099-13.054-42.386-59.9-49.531-67.31-1.223-1.268-6.668.096-7.118 2.174-2.267 10.473 73.059 176.275 102.489 222.435 18.551 29.098 43.539 70.055 69.184 78.121 6.631 2.085 31.396.463 37.759-1.927Zm182.1-137.212c3.558 22.586 12.571 82.54-1.245 116.071-8.695 21.1-39.543 23.792-45.354 25.039-3.416.733-9.352.104-9.935-3.341-2.778-16.426-6.734-67.743-6.734-95.215 0-52.775-7.62-160.735 1.007-193.961.886-3.413 4.194-5.714 9.021-6.648 10.734-2.077 38.597-10.698 56.323-2.456 6.281 2.92 321.138 379.227 322.995 382.301 1.649 2.729-10.332-379.275-24.063-532.867-7.79-87.143-5.207-156.227 4.524-187.077 2.053-6.508 8.986-8.531 17.66-4.909 9.601 4.009 137.58 29.151 159.722 127.991 15.789 70.479 17.975 355.435 12.486 466.037-3.966 79.916-15.337 186.681-28.836 228.098-9.144 28.054-21.287 61.869-52.439 74.668-17.959 7.378-56.295 10.859-87.509 9.966-10.565-.302-16.946-1.009-25.611-7.06-18.931-13.221-57.763-51.595-82.291-91.361-55.318-89.685-193.791-333.484-228.008-376.234-1.811-2.262-7.232-2.365-7.483.118-1.187 11.715 12.362 49.203 15.77 70.84ZM540.188 200.449c-30.48-82.074-113.357-169.773-200.733-175.307-90.356-5.723-132.985 1.882-193.883 71.095C37.878 218.638-4.507 620.031 53.379 823.073c8.771 30.764 31.499 100.785 39.084 125.561.987 3.226 10.465 2.021 12.431-.721 6.306-8.79 20.613-19.033 32.209-59.436 16.76-58.394 18.191-122.748 19.535-161.578 1.182-34.129-10.377-253.413 38.859-424.011 19.426-67.307 80.936-121.338 127.969-103.517 37.409 14.175 108.066 40.19 144.353 223.026 23.813 119.982 39.957 161.714-12.036 232.274-4.344 5.896-28.05 22.628-74.075 12.225-24.624-5.566-74.801-5.766-98.613 8.752-11.97 7.297-19.718 15.022-24.46 20.294-2.679 2.978-5.753 7.514-6.641 11.421-3.238 14.249-3.609 30.567 22.175 75.259 29.007 50.28 91.638 109.964 120.182 125.218 72.894 38.956 99.375 34.771 119.784 41.251 1.134.36 9.346-3.344 10.065-4.293 28.021-36.968 76.899-84.62 88.641-250.764 10.99-155.516-47.131-424.86-72.653-493.585Zm192.375 203.763c-2.976-9.45-38.587-28.654-48.276-33.674-3.103-1.608-9.353.095-9.862 3.551-2.428 16.482-5.291 67.872-4.706 95.337 1.123 52.764-4.198 160.861 5.134 193.896 4.691 16.604 67.543 1.424 71.228-15.432 7.863-35.967 7.32-92.799 6.197-145.562-.723-33.961-14.401-81.242-19.715-98.116Zm42.966-283.178c-14.623 36.754-9.339 142.645 15.882 274.033 23.651 123.211 39.082 254.009 42.417 273.581.343 2.011 8.584 3.588 9.777 1.934 10.698-14.833 13.922-22.559 17.186-41.512 4.224-24.521 9.272-158.384 8.212-257.816-1.014-95.211-23.667-166.537-23.667-166.537s-.46-16.741 22.178-30.93c32.193-20.179 101.307-38.221 157.32-18.477 79.112 27.886 123.557 141.101 127.155 185.511 6.285 77.581-32.557 265.351-160.589 377.513-19.634 17.2-151.014 131.477-161.545 166.343-5.503 18.219-5.417 25.475-.416 37.256 1.681 3.959 2.555 11.202 6.847 10.936 10.362-.642 59.597 3.202 109.49-9.333 56.541-14.204 108.971-32.545 147.294-57.696 80.713-52.968 151.529-172.741 183.597-296.554 18.474-71.327 19.932-189.357 7.562-270.018-11.34-73.945-63.52-187.218-207.677-229.701-64.688-19.064-211.462-14.899-264.422 22.894-17.62 12.574-35.015 24.588-36.601 28.573Z" fill="#cbcbcb"/><path d="M1799.6 97.056c-2.364-4.081-17.205-5.764-22.017-5.331-29.946 2.694-99.842 19.29-110.088 43.39-71.891 169.103-230.262 410.317-346.879 618.869-25.126 44.934-121.002 179.885-134.7 207.993-2.344 4.809 3.262 13.85 8.743 13.521 27.618-1.658 438.201-526.496 486.575-600.107 56.117-85.393 98.767-158.63 124.31-231.487 7.128-20.332 4.264-29.23-5.944-46.848Z" fill="#8a8a8a"/><path d="M1586.15 703.076c1.474-.554 9.463-8.653 9.801-10.492 1.72-9.331-5.154-20.904-11.205-26.827-82.906-81.144-99.866-135.587-151.38-196.173-11.099-13.055-42.386-59.901-49.531-67.311-1.223-1.268-6.667.096-7.117 2.175-2.268 10.472 73.058 176.274 102.488 222.434 18.552 29.098 43.539 70.055 69.184 78.121 6.632 2.086 31.396.463 37.76-1.927Zm182.1-137.212c3.558 22.586 12.572 82.541-1.245 116.071-8.695 21.1-39.543 23.793-45.353 25.039-3.417.733-9.353.104-9.936-3.341-2.778-16.426-6.734-67.743-6.734-95.215 0-52.775-7.62-160.734 1.007-193.961.886-3.412 4.194-5.713 9.021-6.647 10.734-2.078 38.597-10.698 56.323-2.457 6.281 2.921 321.138 379.227 322.995 382.301 1.65 2.73-10.331-379.275-24.062-532.867-7.791-87.143-5.208-156.227 4.523-187.077 2.053-6.508 8.986-8.53 17.66-4.909 9.601 4.009 137.581 29.152 159.722 127.991 15.789 70.479 17.976 355.436 12.486 466.038-3.966 79.915-15.337 186.68-28.836 228.097-9.143 28.054-21.287 61.869-52.439 74.668-17.959 7.379-56.294 10.859-87.509 9.966-10.565-.302-16.946-1.009-25.611-7.06-18.931-13.221-57.762-51.594-82.291-91.361-55.317-89.685-193.791-333.484-228.008-376.234-1.81-2.262-7.232-2.364-7.483.118-1.186 11.715 12.362 49.203 15.77 70.84ZM572.915 233.176C542.436 151.102 459.558 63.403 372.182 57.869c-90.355-5.722-132.985 1.882-193.883 71.096C70.605 251.365 28.22 652.758 86.107 855.801c8.77 30.763 31.499 100.784 39.083 125.56.987 3.227 10.465 2.021 12.431-.72 6.306-8.791 20.613-19.034 32.209-59.436 16.761-58.395 18.191-122.749 19.535-161.579 1.182-34.129-10.377-253.413 38.86-424.011 19.425-67.307 80.935-121.338 127.968-103.517 37.41 14.175 108.067 40.19 144.354 223.027 23.812 119.981 39.956 161.713-12.037 232.273-4.344 5.896-28.05 22.628-74.075 12.225-24.623-5.566-74.8-5.766-98.613 8.752-11.97 7.297-19.718 15.022-24.459 20.294-2.679 2.979-5.754 7.515-6.642 11.421-3.238 14.249-3.609 30.567 22.175 75.259 29.008 50.28 91.638 109.964 120.182 125.218 72.895 38.956 99.375 34.771 119.784 41.252 1.134.36 9.347-3.345 10.065-4.293 28.021-36.968 76.9-84.621 88.641-250.764 10.99-155.517-47.131-424.861-72.653-493.586Zm192.376 203.763c-2.976-9.45-38.587-28.654-48.277-33.674-3.102-1.608-9.353.095-9.862 3.552-2.428 16.481-5.291 67.871-4.706 95.336 1.123 52.764-4.198 160.861 5.134 193.896 4.691 16.604 67.543 1.425 71.228-15.431 7.864-35.967 7.32-92.799 6.197-145.563-.723-33.961-14.4-81.241-19.714-98.116Zm42.965-283.177c-14.622 36.753-9.339 142.644 15.882 274.032 23.651 123.211 39.082 254.009 42.417 273.581.343 2.011 8.585 3.588 9.778 1.934 10.697-14.833 13.921-22.559 17.185-41.511 4.224-24.521 9.272-158.385 8.213-257.817-1.015-95.21-23.668-166.537-23.668-166.537s-.46-16.741 22.178-30.93c32.194-20.178 101.307-38.221 157.32-18.477 79.113 27.887 123.557 141.102 127.155 185.511 6.286 77.581-32.556 265.351-160.589 377.513-19.634 17.2-151.014 131.478-161.545 166.344-5.503 18.218-5.417 25.474-.416 37.256 1.681 3.959 2.555 11.202 6.848 10.936 10.361-.643 59.597 3.201 109.49-9.333 56.54-14.205 108.97-32.546 147.294-57.696 80.713-52.969 151.529-172.742 183.597-296.555 18.473-71.327 19.932-189.357 7.562-270.018-11.34-73.945-63.521-187.218-207.678-229.701-64.688-19.064-211.462-14.899-264.422 22.894-17.619 12.574-35.015 24.588-36.601 28.574Z" fill="#8a8a8a"/><path d="M1832.33 129.783c-2.364-4.081-17.205-5.764-22.017-5.331-29.945 2.694-99.842 19.291-110.088 43.391-71.891 169.102-230.262 410.316-346.878 618.868-25.127 44.935-121.002 179.886-134.701 207.993-2.344 4.809 3.262 13.851 8.743 13.522 27.618-1.658 438.201-526.496 486.575-600.108 56.117-85.393 98.767-158.629 124.31-231.487 7.129-20.332 4.264-29.229-5.944-46.848Z"/><path d="M1618.88 735.803c1.474-.553 9.463-8.653 9.802-10.492 1.72-9.33-5.154-20.904-11.206-26.827-82.906-81.144-99.865-135.586-151.379-196.173-11.1-13.054-42.386-59.9-49.532-67.311-1.222-1.268-6.667.097-7.117 2.175-2.268 10.472 73.058 176.274 102.488 222.435 18.552 29.097 43.539 70.055 69.184 78.12 6.632 2.086 31.396.463 37.76-1.927Zm182.1-137.211c3.558 22.585 12.572 82.54-1.245 116.07-8.694 21.1-39.542 23.793-45.353 25.04-3.416.733-9.353.103-9.935-3.342-2.779-16.426-6.734-67.743-6.734-95.214 0-52.776-7.621-160.735 1.006-193.961.886-3.413 4.194-5.714 9.021-6.648 10.734-2.078 38.597-10.698 56.324-2.456 6.281 2.92 321.138 379.226 322.995 382.3 1.649 2.73-10.332-379.275-24.063-532.866-7.791-87.144-5.207-156.228 4.524-187.077 2.052-6.509 8.985-8.531 17.659-4.909 9.601 4.009 137.581 29.151 159.723 127.99 15.788 70.48 17.975 355.436 12.486 466.038-3.967 79.915-15.338 186.68-28.837 228.098-9.143 28.054-21.287 61.868-52.438 74.667-17.96 7.379-56.295 10.859-87.51 9.966-10.564-.302-16.946-1.009-25.611-7.06-18.93-13.221-57.762-51.594-82.29-91.361-55.318-89.685-193.792-333.484-228.008-376.233-1.811-2.263-7.233-2.365-7.484.117-1.186 11.716 12.362 49.204 15.77 70.841ZM605.642 265.903C575.163 183.829 492.285 96.13 404.909 90.597c-90.355-5.723-132.985 1.882-193.882 71.095-107.695 122.401-150.08 523.793-92.193 726.836 8.771 30.764 31.499 100.785 39.083 125.561.988 3.226 10.465 2.021 12.432-.721 6.306-8.791 20.612-19.033 32.209-59.436 16.76-58.394 18.191-122.748 19.535-161.579 1.181-34.128-10.378-253.413 38.859-424.011 19.425-67.307 80.936-121.338 127.968-103.516 37.41 14.175 108.067 40.19 144.354 223.026 23.812 119.981 39.957 161.713-12.037 232.274-4.344 5.895-28.049 22.628-74.075 12.224-24.623-5.566-74.8-5.766-98.613 8.752-11.969 7.298-19.718 15.022-24.459 20.294-2.679 2.979-5.754 7.515-6.641 11.421-3.238 14.25-3.609 30.567 22.174 75.259 29.008 50.28 91.638 109.964 120.183 125.219 72.894 38.955 99.374 34.771 119.783 41.251 1.134.36 9.347-3.345 10.066-4.293 28.02-36.968 76.899-84.62 88.64-250.764 10.991-155.516-47.131-424.861-72.653-493.586Zm192.376 203.763c-2.976-9.45-38.587-28.654-48.277-33.674-3.102-1.607-9.353.095-9.862 3.552-2.428 16.481-5.29 67.871-4.706 95.336 1.123 52.764-4.198 160.861 5.135 193.896 4.69 16.604 67.542 1.425 71.227-15.431 7.864-35.967 7.32-92.799 6.197-145.563-.723-33.96-14.4-81.241-19.714-98.116Zm42.966-283.177c-14.623 36.753-9.34 142.644 15.881 274.033 23.652 123.21 39.082 254.008 42.418 273.581.342 2.01 8.584 3.587 9.777 1.933 10.698-14.832 13.921-22.559 17.186-41.511 4.223-24.521 9.271-158.385 8.212-257.816-1.014-95.211-23.667-166.537-23.667-166.537s-.46-16.741 22.177-30.931c32.194-20.178 101.307-38.221 157.321-18.476 79.112 27.886 123.556 141.101 127.154 185.51 6.286 77.582-32.556 265.351-160.589 377.513-19.634 17.2-151.014 131.478-161.545 166.344-5.503 18.219-5.416 25.474-.415 37.256 1.68 3.959 2.554 11.202 6.847 10.936 10.361-.642 59.597 3.201 109.49-9.333 56.54-14.204 108.971-32.546 147.294-57.696 80.713-52.969 151.529-172.742 183.597-296.555 18.474-71.327 19.932-189.356 7.562-270.018-11.34-73.944-63.52-187.218-207.677-229.701-64.689-19.063-211.463-14.899-264.422 22.895-17.62 12.574-35.016 24.587-36.601 28.573Z"/></svg>