<?xml version="1.0" encoding="UTF-8" standalone="no"?>
<!DOCTYPE svg PUBLIC "-//W3C//DTD SVG 1.1//EN" "http://www.w3.org/Graphics/SVG/1.1/DTD/svg11.dtd">
<svg width="100%" height="100%" viewBox="0 0 357 82" version="1.1" xmlns="http://www.w3.org/2000/svg" xmlns:xlink="http://www.w3.org/1999/xlink" xml:space="preserve" xmlns:serif="http://www.serif.com/" style="fill-rule:evenodd;clip-rule:evenodd;stroke-linejoin:round;stroke-miterlimit:2;">
    <g transform="matrix(0.360579,0,0,0.360579,-0.505609,-0.0118732)">
        <path d="M85.9,28.6C88.3,22.3 91.6,16.5 96.5,11.8C116.1,-7.3 148.5,-2.5 161.8,21.5C171.8,39.7 182.4,57.5 192.7,75.5C209.9,105.4 227.3,135.3 244.3,165.3C258.6,190.4 243.1,222.1 214.7,226.4C197.3,229 181,221 172,205.4C156.9,179.1 141.7,152.8 126.6,126.6C126.3,126 125.9,125.5 125.5,125C123.9,123.7 123.2,121.8 122.2,120.1C115.5,108.3 108.6,96.6 101.9,84.9C97.6,77.3 93.1,69.8 88.8,62.2C84.9,55.4 83.1,48 83.3,40.2C83.6,36.2 84.1,32.2 85.9,28.6" style="fill:rgb(60,139,217);fill-rule:nonzero;"/>
        <path d="M85.9,28.6C85,32.2 84.2,35.8 84,39.6C83.7,48 85.8,55.8 90,63.1C101,82 112,101 122.9,120C123.9,121.7 124.7,123.4 125.7,125C119.7,135.4 113.7,145.7 107.6,156.1C99.2,170.6 90.8,185.2 82.3,199.7C81.9,199.7 81.8,199.5 81.7,199.2C81.6,198.4 81.9,197.7 82.1,196.9C86.2,181.9 82.8,168.6 72.5,157.2C66.2,150.3 58.2,146.4 49,145.1C37,143.4 26.4,146.5 16.9,154C15.2,155.3 14.1,157.2 12.1,158.2C11.7,158.2 11.5,158 11.4,157.7C16.2,149.4 20.9,141.1 25.7,132.8C45.5,98.4 65.3,64 85.2,29.7C85.4,29.3 85.7,29 85.9,28.6" style="fill:rgb(250,188,4);fill-rule:nonzero;"/>
        <path d="M11.8,158C13.7,156.3 15.5,154.5 17.5,152.9C41.8,133.7 78.3,147.6 83.6,178C84.9,185.3 84.2,192.3 82,199.3C81.9,199.9 81.8,200.4 81.6,201C80.7,202.6 79.9,204.3 78.9,205.9C70,220.6 56.9,227.9 39.7,226.8C20,225.4 4.5,210.6 1.8,191C0.5,181.5 2.4,172.6 7.3,164.4C8.3,162.6 9.5,161 10.6,159.2C11.1,158.8 10.9,158 11.8,158" style="fill:rgb(52,168,82);fill-rule:nonzero;"/>
        <path d="M11.8,158C11.4,158.4 11.4,159.1 10.7,159.2C10.6,158.5 11,158.1 11.4,157.6L11.8,158" style="fill:rgb(250,188,4);fill-rule:nonzero;"/>
        <path d="M81.6,201C81.2,200.3 81.6,199.8 82,199.3C82.1,199.4 82.3,199.6 82.4,199.7L81.6,201" style="fill:rgb(225,192,37);fill-rule:nonzero;"/>
    </g>
    <g transform="matrix(1,0,0,1,105.876,-242.697)">
        <path d="M20.7,260.4C9.4,260.4 0,269.5 0,280.7C0,291.9 9.4,300.9 20.7,300.9C26.8,300.9 31.3,298.9 34.9,295.2C38.6,291.5 39.7,286.4 39.7,282.3C39.7,281 39.6,279.8 39.4,278.8L20.7,278.8L20.7,284.3L34,284.3C33.6,287.4 32.6,289.7 31,291.3C29.1,293.2 26,295.4 20.7,295.4C12.5,295.4 6.1,288.8 6.1,280.7C6.1,272.6 12.5,266 20.7,266C25.1,266 28.4,267.7 30.7,270L34.6,266.1C31.3,262.9 26.9,260.4 20.7,260.4ZM54.6,274.9C47.5,274.9 41.6,280.4 41.6,288.1C41.6,295.7 47.4,301.3 54.6,301.3C61.8,301.3 67.6,295.7 67.6,288.1C67.6,280.5 61.7,274.9 54.6,274.9M54.6,296.1C50.7,296.1 47.3,292.8 47.3,288.1C47.3,283.4 50.7,280.1 54.6,280.1C58.5,280.1 61.9,283.3 61.9,288.1C61.9,292.8 58.5,296.1 54.6,296.1M82.8,274.9C75.6,274.9 69.8,280.4 69.8,288.1C69.8,295.7 75.6,301.3 82.8,301.3C89.9,301.3 95.8,295.7 95.8,288.1C95.8,280.5 90,274.9 82.8,274.9M82.8,296.1C78.9,296.1 75.5,292.8 75.5,288.1C75.5,283.4 78.9,280.1 82.8,280.1C86.7,280.1 90.1,283.3 90.1,288.1C90.1,292.8 86.8,296.1 82.8,296.1M110.9,274.9C104.4,274.9 98.5,280.6 98.5,288C98.5,295.3 104.4,301 110.9,301C114,301 116.4,299.6 117.7,298L117.9,298L117.9,299.9C117.9,304.9 115.3,307.6 111,307.6C107.5,307.6 105.4,305.1 104.5,303L99.5,305.1C100.9,308.6 104.7,312.8 111,312.8C117.7,312.8 123.3,308.8 123.3,299.2L123.3,275.8L117.9,275.8L117.9,277.9L117.7,277.9C116.4,276.3 114,274.9 110.9,274.9M111.4,295.9C107.5,295.9 104.2,292.6 104.2,288C104.2,283.4 107.5,280 111.4,280C115.3,280 118.3,283.4 118.3,288C118.3,292.6 115.3,295.9 111.4,295.9M127.5,262L133.2,262L133.2,300.6L127.5,300.6L127.5,262ZM148.5,274.9C141.7,274.9 136,280.2 136,288.1C136,295.5 141.6,301.3 149.1,301.3C155.2,301.3 158.7,297.6 160.1,295.5L155.6,292.5C154.1,294.7 152,296.1 149.1,296.1C146.1,296.1 144,294.8 142.7,292.1L160.4,284.8L159.8,283.3C158.7,280.4 155.3,274.9 148.5,274.9M141.7,287.7C141.5,282.6 145.7,280 148.6,280C150.9,280 152.9,281.1 153.5,282.8L141.7,287.7Z" style="fill:rgb(117,117,117);fill-rule:nonzero;"/>
        <path d="M170.4,300L183.6,264.9L188.7,264.9L201.9,300L196.9,300L193.5,290.5L178.8,290.5L175.4,300L170.4,300ZM180.3,286.3L192,286.3L186.3,270.5L186.1,270.5L180.3,286.3Z" style="fill:rgb(117,117,117);fill-rule:nonzero;"/>
        <path d="M206.5,297.1C204.3,294.6 203.2,291.6 203.2,288C203.2,284.5 204.3,281.5 206.5,278.9C208.8,276.4 211.4,275.2 214.6,275.2C216.4,275.2 218,275.6 219.4,276.3C220.9,277.1 222,278 222.8,279.3L223,279.3L222.8,276L222.8,264.9L227.3,264.9L227.3,300L223,300L223,296.7L222.8,296.7C222,297.9 220.9,298.9 219.4,299.7C217.9,300.5 216.3,300.8 214.6,300.8C211.4,300.8 208.7,299.6 206.5,297.1M220.7,294.3C222.2,292.7 222.9,290.6 222.9,288C222.9,285.5 222.2,283.4 220.7,281.8C219.3,280.2 217.5,279.4 215.3,279.4C213.1,279.4 211.3,280.2 209.9,281.8C208.4,283.4 207.7,285.5 207.7,288C207.7,290.5 208.4,292.6 209.9,294.2C211.4,295.8 213.2,296.6 215.3,296.6C217.5,296.7 219.3,295.9 220.7,294.3" style="fill:rgb(117,117,117);fill-rule:nonzero;"/>
        <path d="M248.1,298.6C246.3,300 244,300.8 241.2,300.8C238.8,300.8 236.7,300.2 234.8,298.9C233,297.6 231.7,296 230.9,293.9L234.9,292.2C235.5,293.6 236.3,294.8 237.5,295.6C238.6,296.4 239.9,296.8 241.2,296.8C242.6,296.8 243.8,296.5 244.8,295.9C245.8,295.3 246.2,294.5 246.2,293.7C246.2,292.2 245,291 242.7,290.3L238.6,289.3C233.9,288.1 231.6,285.9 231.6,282.5C231.6,280.3 232.5,278.6 234.3,277.2C236.1,275.9 238.4,275.2 241.1,275.2C243.2,275.2 245.1,275.7 246.9,276.7C248.6,277.7 249.8,279.1 250.5,280.8L246.5,282.5C246,281.5 245.3,280.7 244.3,280.1C243.3,279.5 242.1,279.2 240.8,279.2C239.6,279.2 238.6,279.5 237.6,280.1C236.7,280.7 236.2,281.4 236.2,282.3C236.2,283.7 237.5,284.7 240.1,285.2L243.7,286.1C248.5,287.3 250.8,289.7 250.8,293.3C250.9,295.4 249.9,297.2 248.1,298.6" style="fill:rgb(117,117,117);fill-rule:nonzero;"/>
    </g>
</svg>
